<?xml version="1.0" standalone="no"?>
<!DOCTYPE svg PUBLIC "-//W3C//DTD SVG 20010904//EN"
 "http://www.w3.org/TR/2001/REC-SVG-20010904/DTD/svg10.dtd">
<svg version="1.0" xmlns="http://www.w3.org/2000/svg"
 width="1200.000000pt" height="1200.000000pt" viewBox="0 0 1200.000000 1200.000000"
 preserveAspectRatio="xMidYMid meet">
<metadata>
Created by potrace 1.11, written by Peter Selinger 2001-2013
</metadata>
<g transform="translate(0.000000,1200.000000) scale(0.100000,-0.100000)"
fill="#000000" stroke="none">
<path d="M2286 8417 c-14 -14 -22 -33 -20 -48 1 -13 3 -30 3 -37 1 -7 12 -17
25 -23 34 -16 37 -52 29 -460 -6 -335 -7 -359 -24 -359 -29 0 -164 -34 -314
-80 -509 -155 -493 -149 -587 -197 -83 -41 -155 -57 -215 -48 -41 6 -46 10
-63 48 -10 23 -26 74 -35 112 -9 39 -26 104 -37 147 l-21 76 30 39 c17 21 43
58 58 83 16 25 83 100 149 168 164 166 217 247 202 305 -3 12 -49 68 -103 124
-80 84 -105 103 -136 109 -45 8 -67 -7 -67 -46 0 -29 93 -144 135 -167 36 -20
20 -70 -50 -154 l-59 -71 -24 28 c-12 16 -30 45 -38 64 -45 104 -114 105 -114
2 0 -40 24 -84 81 -150 16 -18 29 -36 29 -41 0 -7 -88 -130 -109 -153 -3 -4
-6 6 -7 23 -1 16 -9 38 -18 48 -49 54 -109 13 -121 -82 -4 -30 -5 -62 -3 -69
3 -8 -14 -24 -41 -39 l-46 -27 -30 61 c-16 34 -42 70 -57 81 -25 18 -28 18
-53 2 -33 -22 -31 -65 8 -112 l29 -34 -34 4 c-77 10 -141 29 -159 47 -21 21
-22 38 -10 114 11 64 0 95 -33 95 -33 0 -55 -42 -64 -121 -4 -33 -11 -60 -17
-60 -46 -3 -116 15 -125 31 -6 10 -10 65 -11 122 0 126 -14 173 -49 173 -18 0
-30 -9 -43 -35 -26 -49 -19 -234 11 -302 19 -44 23 -47 98 -72 98 -32 247 -65
295 -66 20 0 51 -3 68 -6 31 -6 27 -9 -55 -40 -131 -49 -133 -51 -220 -239
-127 -277 -152 -401 -87 -430 12 -5 24 -19 28 -32 15 -60 106 -55 207 12 l68
45 108 0 c68 0 127 6 158 15 27 8 54 15 60 15 6 0 34 -53 63 -117 28 -65 65
-134 82 -153 16 -19 37 -48 45 -64 9 -15 31 -49 49 -75 71 -100 92 -162 105
-314 13 -154 12 -149 105 -352 158 -343 237 -547 251 -643 3 -26 19 -71 34
-99 l28 -52 -20 -23 c-11 -13 -26 -35 -34 -50 -23 -44 -71 -112 -93 -133 -12
-10 -31 -34 -42 -52 -24 -38 -30 -36 -64 18 -14 21 -69 83 -123 137 -80 81
-107 102 -150 116 -33 11 -63 15 -83 11 -47 -11 -110 -82 -164 -185 -27 -53
-72 -119 -106 -157 -32 -36 -59 -69 -59 -74 0 -6 -20 -31 -44 -57 -55 -59
-169 -219 -208 -289 -16 -29 -42 -89 -58 -134 -16 -44 -38 -92 -48 -107 -11
-15 -32 -52 -47 -82 -15 -30 -55 -95 -87 -143 -63 -93 -92 -152 -83 -166 2 -5
14 -11 25 -14 16 -4 24 2 37 26 8 18 44 75 78 128 35 52 74 118 89 146 14 28
37 68 50 88 14 20 32 62 41 93 9 31 28 79 42 107 32 62 168 256 223 316 22 24
40 47 40 51 0 4 26 37 59 72 32 36 78 102 101 148 48 93 102 164 131 173 53
17 175 -84 300 -250 152 -200 172 -225 189 -225 35 0 28 30 -21 97 -27 37 -49
70 -49 73 0 3 24 32 54 65 29 33 78 99 109 146 30 47 83 123 117 168 33 44 71
99 83 120 43 77 130 197 186 256 31 33 68 82 83 108 28 48 31 51 80 61 37 8
58 44 65 110 5 45 12 60 39 87 49 47 81 38 210 -60 200 -152 271 -225 342
-353 12 -20 60 -84 107 -142 78 -95 107 -125 199 -199 l28 -23 -48 -69 c-27
-39 -56 -76 -66 -83 -24 -18 -23 -49 3 -57 25 -8 49 12 92 75 33 49 109 146
200 255 74 88 256 265 273 265 23 0 129 -98 201 -185 27 -33 79 -105 116 -160
92 -139 126 -186 152 -215 50 -55 169 -256 212 -357 78 -182 142 -351 203
-525 81 -234 173 -387 233 -388 35 0 34 8 -6 56 -48 56 -112 168 -122 214 -10
43 -83 259 -102 300 -14 30 -40 96 -59 145 -39 109 -106 270 -130 316 -27 52
-143 229 -181 277 -43 52 -78 102 -177 248 -73 108 -184 233 -261 294 -39 31
-102 41 -135 20 -23 -14 -208 -200 -253 -255 -23 -27 -49 -56 -57 -65 -8 -8
-24 -28 -35 -43 l-20 -27 -77 77 c-96 97 -225 248 -234 275 -3 11 -16 35 -29
54 l-23 34 34 37 c34 37 94 165 94 202 0 11 7 39 17 62 l16 42 14 -36 c20 -49
39 -53 73 -17 49 52 70 201 43 309 -7 30 -12 55 -11 56 2 1 28 5 58 8 30 3 67
10 81 17 33 15 71 81 65 112 -3 13 -7 37 -10 54 -5 42 -25 71 -62 95 -24 14
-30 24 -27 42 6 30 -22 59 -51 55 -13 -2 -22 -12 -24 -25 -3 -21 -9 -23 -70
-23 -60 0 -68 2 -77 23 -14 31 -60 35 -75 7 -6 -12 -10 -29 -8 -38 2 -11 -14
-28 -47 -50 -60 -40 -108 -103 -137 -177 -11 -30 -25 -52 -29 -49 -16 9 -10
56 13 103 41 85 35 218 -16 326 -44 96 -156 182 -251 193 l-44 4 -5 52 c-3 28
-7 113 -8 188 -3 134 -2 138 17 130 42 -15 406 -5 434 13 4 2 87 20 186 40
l180 37 363 -7 c200 -3 435 -3 523 1 200 9 192 1 161 172 -25 137 -43 412 -42
667 1 210 -11 351 -31 369 -11 10 -43 11 -134 5 -66 -5 -165 -8 -220 -9 -55 0
-152 -7 -215 -15 -63 -8 -144 -17 -180 -20 -36 -4 -110 -16 -165 -27 -55 -11
-113 -23 -130 -25 -16 -2 -73 -12 -125 -21 -72 -13 -151 -16 -333 -15 -131 0
-253 4 -272 7 l-33 7 24 24 c31 31 31 59 -1 90 -30 31 -69 32 -99 2z m1840
-45 c19 -12 29 -137 29 -372 1 -233 17 -525 36 -643 6 -37 9 -74 6 -81 -4 -9
-36 -16 -104 -21 -100 -8 -494 -8 -548 0 -56 8 -310 5 -370 -4 -33 -5 -109
-18 -170 -30 -102 -19 -233 -41 -365 -62 -78 -13 -188 -8 -232 9 l-38 15 0 81
c0 81 0 81 32 97 17 8 41 27 52 42 l20 27 -20 28 c-12 15 -35 31 -53 37 l-33
10 4 370 3 370 315 1 c336 0 305 -3 575 59 39 8 131 20 205 25 74 6 160 14
190 19 30 5 100 10 155 12 55 1 132 5 170 9 101 10 129 11 141 2z m-2795 -112
c42 -44 84 -95 94 -113 l18 -34 -39 -66 c-24 -40 -88 -116 -164 -194 -69 -70
-150 -163 -179 -205 -50 -73 -72 -91 -85 -69 -4 5 13 33 37 63 59 72 137 188
137 202 -1 19 -23 52 -67 101 -35 38 -43 53 -43 85 0 56 15 57 46 3 41 -71 84
-123 101 -123 18 0 82 70 131 143 28 40 33 55 28 83 -4 18 -17 41 -29 51 -34
27 -127 132 -127 143 0 6 15 10 33 10 27 0 43 -12 108 -80z m-1150 -392 c5
-204 6 -219 24 -238 36 -40 160 -65 184 -36 9 11 22 72 33 164 1 7 6 11 12 9
5 -2 9 -25 7 -53 -7 -125 -5 -141 20 -154 11 -6 72 -24 135 -39 63 -16 118
-32 122 -36 11 -13 -113 2 -248 29 -69 14 -138 27 -153 30 -91 16 -147 47
-155 85 -9 42 -20 188 -16 209 12 63 15 72 24 72 6 0 10 -19 11 -42z m778
-127 c10 -7 12 -22 8 -60 -8 -68 -22 -91 -54 -91 -25 0 -26 1 -20 59 8 88 28
116 66 92z m-272 -93 c13 -18 54 -120 50 -125 -9 -8 -97 98 -97 117 0 23 31
28 47 8z m281 -106 c35 -22 59 -79 76 -179 31 -174 62 -227 143 -239 58 -8
139 9 185 41 42 28 222 96 358 135 170 49 283 82 375 111 50 16 118 35 152 43
l61 14 4 -50 c3 -45 1 -49 -22 -55 -14 -3 -74 -20 -135 -39 -60 -18 -121 -35
-135 -37 -14 -3 -83 -23 -155 -45 -71 -23 -148 -44 -170 -48 -22 -4 -84 -24
-137 -46 -54 -21 -102 -38 -107 -38 -17 0 -132 -75 -131 -85 0 -5 10 -10 23
-10 18 0 31 -18 72 -100 50 -101 78 -200 121 -430 23 -128 39 -157 94 -174 40
-13 49 -12 90 3 212 81 298 106 375 108 l78 3 9 -34 c5 -19 7 -66 4 -105 -3
-39 -8 -184 -12 -323 l-6 -251 -25 -7 c-14 -3 -27 -4 -29 -2 -2 2 -4 120 -5
263 0 181 -4 268 -12 285 -21 41 -71 37 -174 -15 -90 -45 -129 -58 -241 -82
-98 -21 -206 -80 -233 -127 -32 -57 -36 -145 -11 -232 11 -38 25 -100 31 -136
6 -37 27 -114 47 -170 19 -57 48 -149 63 -204 16 -55 38 -123 49 -152 l21 -51
-29 -10 c-27 -10 -28 -9 -35 26 -15 87 -50 190 -120 357 -26 61 -58 137 -72
170 -14 33 -42 94 -63 135 -60 116 -91 215 -101 320 -5 52 -15 120 -21 150 -6
30 -11 58 -10 62 1 4 -50 84 -113 178 -62 94 -121 192 -131 218 -40 112 -59
152 -73 157 -9 2 -41 -2 -71 -10 -71 -19 -178 -28 -213 -18 l-27 8 55 55 56
55 94 5 c108 6 130 19 140 81 13 74 -30 147 -79 135 -29 -7 -115 -95 -163
-166 -18 -27 -35 -50 -36 -50 -1 0 -2 36 -2 80 0 60 3 80 13 80 22 0 7 25 -17
28 -24 4 -71 -22 -71 -39 0 -6 10 -9 22 -7 20 3 21 0 20 -70 -3 -124 -42 -183
-177 -261 -115 -67 -152 -54 -142 52 12 125 87 270 206 397 l49 52 25 -26 c19
-19 37 -26 65 -26 43 0 62 14 62 47 0 30 14 29 34 -2 31 -47 136 -23 136 30 0
16 88 77 136 96 21 7 24 13 16 21 -9 9 -24 6 -62 -12 -28 -13 -55 -29 -61 -36
-9 -11 -15 -10 -33 1 -20 13 -29 13 -75 -1 -29 -8 -61 -24 -72 -35 -13 -13
-27 -17 -44 -13 -14 3 -39 1 -57 -5 l-32 -11 28 29 c15 16 42 32 60 35 17 3
42 13 54 22 26 18 30 62 6 71 -12 4 -8 14 23 45 71 74 152 97 211 60z m1453
-82 c26 -15 24 -35 -7 -59 -38 -30 -44 -27 -44 24 0 48 11 56 51 35z m-1713
-49 c26 -16 -18 -35 -106 -45 -81 -10 -88 -13 -108 -44 -12 -18 -25 -51 -29
-73 -4 -22 -22 -60 -42 -86 -94 -123 -150 -239 -154 -319 -3 -64 -9 -80 -20
-62 -12 19 -10 75 5 138 25 106 156 389 196 425 12 11 56 32 98 47 79 27 137
34 160 19z m1622 -263 c0 -101 3 -232 6 -293 l6 -110 -48 -19 c-89 -36 -214
-185 -214 -256 0 -12 -7 -20 -16 -20 -22 0 -182 -39 -202 -49 -160 -80 -224
-85 -258 -19 -23 45 -33 87 -43 188 -14 132 -90 354 -151 439 l-18 27 40 22
c21 13 58 30 81 38 71 26 351 112 377 117 14 3 72 20 130 37 122 38 267 77
293 79 16 1 17 -14 17 -181z m-1809 119 l-20 -20 6 24 c3 13 11 30 17 38 9 12
12 11 14 -4 2 -9 -5 -27 -17 -38z m359 -163 c15 -39 12 -101 -6 -118 -11 -12
-35 -16 -85 -16 -38 0 -69 3 -69 6 0 13 62 94 95 122 43 39 53 40 65 6z m1460
-509 c0 -103 -2 -115 -18 -115 -9 0 -37 -11 -62 -24 -40 -21 -48 -22 -65 -10
-10 8 -34 14 -52 14 -18 0 -33 4 -33 10 0 5 14 36 30 69 34 67 115 146 164
160 17 5 32 10 34 10 1 1 2 -51 2 -114z m151 104 c49 -17 94 -53 138 -112 52
-69 74 -148 69 -241 -5 -67 -10 -87 -43 -147 -16 -28 -6 -86 16 -100 9 -5 7
-21 -9 -61 -11 -29 -26 -72 -33 -95 -7 -24 -16 -43 -21 -43 -19 0 -87 84 -101
123 -13 41 -13 43 14 80 34 46 53 132 44 190 -4 23 -18 66 -31 95 -21 49 -29
56 -84 80 l-60 27 0 107 0 108 34 0 c18 0 48 -5 67 -11z m-23 -276 c44 -33 61
-78 62 -169 0 -74 -3 -85 -31 -127 -43 -65 -128 -107 -216 -107 l-63 0 0 69
c0 38 3 82 6 99 l6 30 32 -19 c53 -32 98 -24 122 22 26 51 -10 118 -56 104
-26 -8 -21 -29 8 -33 17 -3 22 -10 22 -32 0 -40 -30 -56 -68 -36 -42 22 -49
34 -56 107 -5 57 -4 68 13 83 45 41 169 46 219 9z m492 -8 c0 -8 -4 -15 -10
-15 -5 0 -10 7 -10 15 0 8 5 15 10 15 6 0 10 -7 10 -15z m211 -8 c-13 -13 -26
-3 -16 12 3 6 11 8 17 5 6 -4 6 -10 -1 -17z m-59 -37 c91 -14 123 -34 147 -90
30 -70 19 -117 -34 -147 -22 -13 -49 -23 -61 -23 -26 0 -57 33 -59 63 -1 12
-9 23 -18 25 -23 5 -23 -50 -1 -72 22 -22 1 -20 -47 5 -23 11 -43 18 -46 15
-12 -11 9 -38 37 -49 24 -9 33 -21 45 -63 28 -96 14 -250 -26 -296 l-20 -23 6
109 c5 85 4 107 -6 104 -7 -2 -17 -20 -22 -39 -4 -19 -22 -63 -38 -99 -17 -36
-44 -105 -61 -155 -32 -96 -72 -175 -89 -175 -13 0 -4 47 22 113 22 56 24 115
5 140 -7 9 -42 29 -76 43 -79 32 -96 25 -135 -57 -16 -32 -33 -56 -38 -52 -14
8 2 104 29 176 9 23 28 85 44 137 15 52 44 129 64 170 20 41 36 79 36 85 0 29
108 131 147 140 10 2 32 8 48 14 40 12 78 13 147 1z m-1039 -117 c10 -16 18
-197 19 -423 1 -236 -1 -258 -36 -292 -7 -8 -28 -39 -45 -69 -17 -30 -45 -66
-64 -80 -18 -15 -55 -60 -82 -100 -28 -41 -65 -93 -82 -117 -18 -24 -33 -49
-33 -55 0 -7 -11 -25 -23 -41 l-24 -29 -26 66 c-14 36 -28 76 -31 89 -8 43
-44 166 -54 184 -13 24 -65 206 -98 342 -32 131 -35 235 -8 282 25 41 88 75
197 106 151 42 237 73 267 94 53 38 114 59 123 43z m406 -249 c12 -34 93 -127
117 -135 8 -3 2 -33 -18 -95 l-31 -92 -31 22 c-130 91 -126 86 -126 136 0 26
-3 75 -7 110 -4 40 -3 61 4 57 5 -3 23 3 39 13 39 25 38 25 53 -16z m-139
-104 c0 -88 -1 -90 -24 -90 -13 0 -40 -11 -60 -25 l-36 -24 0 32 c0 18 -3 69
-7 115 l-6 82 67 0 66 0 0 -90z m473 -198 c22 -20 22 -50 -3 -111 -10 -27 -21
-62 -24 -78 -2 -15 -5 -29 -5 -30 -1 -1 -14 11 -29 25 -15 15 -49 46 -75 70
l-47 43 30 59 c16 32 35 60 42 63 16 5 87 -21 111 -41z"/>
<path d="M3145 8241 c-56 -20 -156 -83 -211 -131 -88 -77 -152 -313 -123 -452
17 -78 65 -177 107 -222 84 -88 314 -168 432 -150 25 4 54 8 65 10 11 1 20 3
20 4 0 1 11 4 25 6 89 16 239 153 297 271 27 56 28 63 28 213 l0 155 -39 73
c-40 76 -110 147 -176 182 -98 51 -336 74 -425 41z m252 -56 c32 -8 70 -16 84
-19 60 -10 153 -81 196 -149 43 -68 53 -111 54 -238 1 -116 0 -121 -32 -182
-17 -34 -50 -83 -73 -110 -40 -47 -150 -119 -191 -124 -11 -2 -43 -8 -71 -14
-87 -17 -181 4 -313 70 -147 74 -211 234 -176 437 12 70 51 161 83 198 28 31
134 99 192 123 66 27 160 30 247 8z"/>
<path d="M3243 8177 c-12 -7 -72 -61 -133 -121 -87 -86 -110 -115 -110 -136 0
-26 15 -40 42 -40 6 0 48 37 94 82 63 61 84 77 85 62 0 -10 2 -35 5 -56 5 -40
-3 -51 -130 -161 -53 -47 -66 -64 -66 -88 0 -22 5 -30 26 -35 28 -7 34 -3 132
83 l60 53 7 -56 c3 -30 8 -83 10 -117 14 -235 20 -255 69 -243 41 10 51 54 38
170 -6 55 -15 137 -18 181 l-7 79 39 -32 c21 -17 55 -45 74 -62 47 -39 97 -42
106 -4 9 36 -18 69 -102 126 -93 62 -136 109 -132 140 3 25 6 23 101 -43 99
-70 134 -82 157 -54 21 25 -2 58 -77 111 -37 26 -106 76 -153 111 -47 34 -87
63 -90 62 -3 0 -15 -5 -27 -12z"/>
<path d="M337 6860 c-20 -33 -22 -56 -5 -66 15 -10 48 32 48 61 0 34 -24 37
-43 5z m14 -33 c-13 -13 -15 1 -4 30 7 17 8 17 11 -1 2 -10 -1 -23 -7 -29z"/>
<path d="M2955 6336 c-64 -28 -166 -164 -151 -202 10 -26 22 -14 45 41 39 93
163 181 206 145 23 -19 18 -39 -10 -45 -14 -3 -36 -7 -48 -10 -35 -7 -74 -41
-103 -90 -23 -40 -25 -65 -6 -65 4 0 16 15 26 34 31 59 69 87 143 106 55 14
69 22 71 39 2 15 -4 24 -21 30 -14 6 -28 15 -32 20 -9 15 -84 13 -120 -3z"/>
<path d="M3173 6304 c-3 -8 2 -23 11 -32 15 -15 17 -15 32 0 21 21 11 48 -16
48 -11 0 -23 -7 -27 -16z"/>
<path d="M3197 6193 c-14 -13 -6 -33 13 -33 13 0 20 7 20 20 0 19 -20 27 -33
13z"/>
<path d="M8247 7030 c-51 -13 -112 -45 -174 -91 l-51 -39 -35 35 c-25 25 -44
35 -66 35 -71 0 -171 -82 -171 -141 0 -38 20 -76 59 -113 l30 -29 -57 -111
c-105 -202 -212 -486 -212 -559 0 -18 -4 -37 -9 -42 -5 -6 -17 -45 -26 -87 -9
-43 -19 -78 -22 -78 -3 0 -39 32 -81 71 -166 154 -294 213 -492 226 -85 5
-101 3 -150 -17 -84 -35 -145 -99 -195 -205 -56 -118 -65 -165 -65 -349 0
-309 68 -525 232 -742 64 -86 376 -387 446 -431 52 -33 160 -124 166 -139 3
-9 6 -46 6 -82 0 -84 16 -241 36 -350 17 -98 67 -208 107 -236 50 -37 136 -13
183 51 46 63 93 218 124 413 17 105 29 139 53 155 12 8 81 27 152 42 127 27
136 28 445 27 l315 0 95 -33 c109 -37 108 -35 208 -229 85 -165 157 -242 225
-242 75 0 112 69 110 205 -3 163 -48 633 -84 875 -10 69 -26 179 -34 245 -34
247 -57 397 -69 443 l-12 47 247 1 246 2 7 -52 c4 -28 8 -66 10 -84 6 -49 31
-72 80 -72 84 0 120 53 114 171 l-3 78 34 23 c51 34 73 71 78 125 7 85 -51
161 -148 195 -13 5 -27 179 -15 189 6 5 22 18 36 28 20 16 23 23 14 38 -6 10
-24 19 -40 21 -39 5 -43 10 -53 70 l-8 51 31 -7 c17 -4 47 -7 66 -7 l35 0 -2
169 c-1 100 -6 173 -12 179 -7 7 -33 3 -83 -12 -40 -12 -74 -18 -75 -14 -2 5
-12 23 -23 41 -24 40 -57 42 -91 6 -13 -14 -37 -33 -53 -41 l-29 -15 6 -113 7
-112 -48 15 c-26 9 -60 26 -75 39 -20 16 -41 23 -69 23 -46 0 -158 -46 -158
-65 0 -7 25 -27 55 -44 56 -32 132 -42 164 -22 15 10 70 -4 116 -29 40 -22 53
-71 66 -249 5 -79 11 -148 12 -154 3 -16 -77 -25 -230 -26 -151 -1 -217 10
-281 48 -41 24 -46 31 -62 93 -9 36 -24 84 -32 105 -9 21 -21 65 -28 98 -17
83 -135 411 -152 421 -4 3 -15 18 -23 34 -15 29 -14 30 29 74 49 51 60 87 41
132 -19 46 -79 101 -125 115 -37 11 -42 10 -78 -15 -22 -15 -45 -38 -52 -51
l-13 -25 -31 20 c-51 34 -122 69 -152 75 -54 11 -199 14 -237 5z m240 -61
c195 -67 323 -204 405 -433 68 -188 139 -426 165 -551 6 -29 18 -47 50 -71 61
-47 146 -59 379 -57 183 2 192 1 197 -17 3 -11 0 -36 -6 -56 -10 -32 -9 -38 9
-53 14 -11 23 -34 28 -68 l7 -52 -48 -7 c-26 -4 -150 -4 -274 0 -168 5 -229 4
-234 -5 -4 -6 -3 -14 2 -18 9 -6 51 -219 57 -291 2 -19 11 -69 19 -110 28
-131 67 -401 77 -535 6 -71 23 -204 38 -295 22 -134 27 -197 27 -335 0 -147
-3 -175 -18 -198 -24 -37 -66 -36 -108 1 -18 16 -65 92 -109 177 -43 82 -95
170 -116 196 -79 97 -147 111 -583 113 -295 1 -323 -1 -421 -22 -178 -39 -189
-47 -236 -185 -25 -74 -55 -192 -52 -205 5 -19 -26 -151 -49 -208 -28 -70 -61
-98 -111 -92 -39 5 -85 70 -99 143 -6 33 -21 108 -33 167 -26 133 -28 366 -6
833 24 496 26 512 91 874 8 47 18 110 21 140 3 31 23 117 45 191 22 74 42 148
45 164 2 16 9 38 15 48 6 11 19 43 29 71 65 182 86 227 206 433 70 119 199
246 299 293 116 55 179 59 292 20z m373 -24 c27 -25 43 -77 31 -106 -5 -13
-21 -35 -36 -49 l-27 -25 -26 35 c-15 19 -43 51 -63 71 -36 35 -37 38 -21 60
9 13 21 28 26 32 18 13 95 1 116 -18z m-896 -46 l26 -30 -63 -73 c-58 -67 -63
-71 -83 -59 -60 38 -51 113 19 164 51 37 69 36 101 -2z m1792 -280 c7 -30 20
-110 29 -179 33 -244 37 -260 79 -260 19 0 19 -2 -8 -23 -29 -23 -29 -25 -22
-98 3 -41 17 -139 30 -219 30 -178 48 -362 40 -386 -20 -56 -92 -86 -112 -46
-11 20 -27 112 -42 237 -6 50 -17 96 -25 104 -10 10 -11 20 -3 35 10 23 -32
431 -52 507 -12 44 -18 49 -95 80 -33 13 -52 25 -43 27 9 2 35 -6 58 -18 22
-11 45 -18 51 -14 7 4 9 49 5 130 -5 112 -4 123 13 129 10 3 28 17 41 30 13
14 28 24 34 22 5 -2 15 -28 22 -58z m164 -6 c4 -197 4 -253 2 -253 -30 0 -91
26 -95 40 -4 17 -2 17 30 4 18 -8 38 -12 43 -9 21 13 8 32 -27 43 -34 10 -35
10 -5 6 24 -4 34 -1 38 11 9 22 -12 34 -61 36 l-40 1 53 16 c65 19 63 38 -4
35 l-49 -3 49 18 c71 26 74 47 7 38 -33 -4 -51 -3 -51 4 0 5 12 10 28 11 15 0
36 4 47 9 30 13 35 12 35 -7z m-458 -187 l21 -15 -27 -11 c-37 -14 -57 -13
-101 6 -46 19 -35 30 35 33 32 1 58 -4 72 -13z m-2343 -407 c44 -17 95 -41
113 -54 18 -13 47 -32 63 -41 35 -20 161 -122 188 -152 17 -18 17 -27 8 -74
-9 -46 -58 -361 -75 -485 -13 -91 -25 -341 -32 -623 -4 -162 -7 -296 -8 -297
-1 -1 -59 48 -128 110 -69 62 -167 148 -218 192 -123 107 -193 184 -272 302
-71 106 -142 267 -152 348 -4 28 -12 68 -18 90 -16 56 -13 284 6 378 8 43 28
101 43 128 101 187 283 254 482 178z m2822 -152 c36 -30 49 -58 49 -106 0 -43
-37 -100 -57 -88 -6 4 -14 46 -18 95 -4 48 -9 95 -11 105 -7 23 5 21 37 -6z"/>
<path d="M8102 6668 c-19 -19 -15 -78 6 -80 53 -4 72 8 72 49 0 35 -53 56 -78
31z"/>
<path d="M8534 6656 c-10 -43 -1 -61 32 -64 37 -4 57 16 52 55 -3 24 -8 28
-40 31 -33 3 -38 0 -44 -22z"/>
<path d="M8330 6483 c-32 -22 -40 -33 -40 -59 0 -26 17 -34 71 -34 60 0 99 24
99 60 0 19 -7 33 -19 40 -30 15 -84 12 -111 -7z m93 -25 c21 -11 21 -12 -17
-29 -40 -17 -76 -15 -76 6 0 12 35 33 58 34 7 1 23 -4 35 -11z"/>
<path d="M8750 6410 c0 -16 49 -90 60 -90 15 0 12 17 -10 60 -19 36 -50 55
-50 30z"/>
<path d="M7841 6335 c-17 -20 -31 -47 -31 -60 0 -31 18 -32 29 -2 5 12 21 35
35 50 14 15 26 32 26 38 0 20 -30 7 -59 -26z"/>
<path d="M8014 6310 c-104 -15 -164 -49 -164 -92 0 -31 68 -115 122 -149 25
-16 75 -36 110 -43 l63 -13 6 -42 c9 -66 25 -75 136 -80 119 -4 196 5 223 27
16 13 23 33 27 78 l5 60 47 17 c116 43 165 144 105 216 l-26 31 -301 -1 c-166
-1 -325 -5 -353 -9z m136 -141 l0 -111 -46 7 c-93 14 -93 13 -145 60 -103 93
-86 132 63 142 46 3 85 7 87 9 2 2 13 4 23 4 16 0 18 -10 18 -111z m176 97 c3
-2 7 -213 6 -273 l-2 -63 -59 0 c-36 0 -63 5 -69 13 -7 8 -12 79 -14 176 l-3
163 70 -7 c39 -4 71 -8 71 -9z m174 -145 c0 -181 0 -181 -80 -189 l-50 -5 0
171 0 171 38 4 c20 2 49 4 65 5 l27 2 0 -159z m150 140 c31 -9 38 -49 14 -86
-17 -26 -90 -75 -112 -75 -8 0 -12 27 -12 85 l0 85 43 -1 c23 -1 53 -4 67 -8z"/>
<path d="M7617 5653 c-13 -12 -7 -317 8 -413 49 -329 124 -470 251 -470 30 0
45 8 79 43 40 39 43 48 50 111 4 37 4 130 0 205 -5 75 -8 145 -8 156 0 11 -6
74 -13 140 -8 66 -14 138 -14 161 0 48 -20 73 -40 49 -15 -18 -12 -61 20 -325
32 -264 24 -390 -27 -457 -46 -63 -111 -36 -163 68 -17 32 -30 61 -30 64 0 3
0 6 -1 8 0 1 -2 11 -3 22 -1 11 -12 58 -24 105 -38 157 -52 262 -52 403 0 107
-3 137 -13 137 -8 0 -17 -3 -20 -7z"/>
<path d="M7002 5845 c-11 -14 -28 -54 -37 -90 -10 -36 -21 -65 -24 -65 -3 1
-31 9 -61 20 -64 23 -134 27 -128 8 3 -7 38 -24 79 -38 41 -14 80 -28 87 -30
9 -4 6 -25 -13 -90 -14 -47 -26 -95 -27 -107 -2 -13 -3 -23 -3 -23 -36 15
-135 40 -156 40 -45 0 -36 -27 14 -40 85 -23 125 -35 127 -40 5 -10 -23 -181
-31 -185 -4 -3 -39 1 -78 8 -59 12 -71 12 -75 0 -6 -16 -4 -17 83 -41 l64 -17
-2 -82 c-2 -91 3 -111 25 -92 10 8 14 33 14 80 0 37 4 70 8 73 5 3 44 -11 88
-30 43 -20 94 -40 113 -46 l34 -10 -6 -133 c-7 -142 -2 -195 18 -195 8 0 14
42 19 147 3 81 8 148 9 150 2 1 33 -13 70 -33 37 -19 71 -33 77 -29 19 12 -15
45 -78 76 -59 29 -64 34 -59 58 3 14 9 54 13 89 3 34 10 64 14 67 4 2 40 -11
80 -31 51 -24 76 -32 84 -24 14 14 5 21 -85 70 -67 35 -76 44 -72 63 3 12 14
55 24 94 11 40 19 75 19 78 0 8 82 -45 112 -72 26 -25 48 -24 48 1 0 7 -29 33
-65 57 -35 24 -67 50 -70 57 -3 8 4 34 15 59 25 57 25 63 0 63 -25 0 -44 -35
-49 -92 -2 -15 -21 -8 -83 30 -35 21 -82 44 -106 52 -24 7 -45 17 -48 22 -3 4
9 40 26 80 16 40 30 80 30 90 0 28 -17 30 -38 3z m40 -246 c38 -17 89 -43 112
-57 l43 -27 -18 -55 c-10 -30 -23 -74 -29 -97 l-11 -42 -62 28 c-34 16 -83 37
-109 46 -54 19 -55 21 -32 115 21 87 22 93 23 108 1 17 3 16 83 -19z m-64
-257 c31 -16 80 -37 108 -47 l50 -18 -13 -61 c-7 -33 -13 -73 -13 -88 0 -15
-4 -29 -8 -32 -5 -3 -44 11 -88 30 -43 19 -94 39 -112 45 -34 11 -34 12 -27
58 12 86 27 141 36 141 5 0 35 -13 67 -28z"/>
<path d="M10800 6060 c-108 -30 -231 -79 -274 -110 -23 -17 -62 -58 -88 -93
-80 -105 -85 -202 -14 -279 l25 -26 -97 -4 c-53 -2 -112 1 -130 6 -50 15 -102
-13 -102 -54 0 -17 7 -44 15 -60 15 -29 15 -30 -24 -58 -45 -33 -70 -43 -153
-67 -72 -19 -119 -60 -147 -126 l-22 -51 50 -101 c74 -149 77 -171 35 -258
-19 -39 -36 -83 -39 -98 -3 -16 -11 -44 -20 -64 -19 -45 -29 -135 -21 -180 8
-44 88 -167 108 -167 20 0 4 53 -29 97 -20 26 -40 65 -44 87 -10 53 12 142 62
261 46 106 56 185 29 234 -6 12 -13 31 -15 41 -2 11 -20 47 -40 81 -40 68 -40
84 -3 140 26 39 88 72 167 91 32 7 73 26 99 46 l44 33 40 -46 c29 -33 174
-159 195 -170 1 0 -9 -48 -22 -106 -13 -58 -29 -152 -35 -210 -6 -57 -16 -124
-21 -148 -5 -24 -12 -91 -16 -150 -5 -95 -3 -111 16 -152 15 -31 34 -53 62
-68 36 -21 39 -25 34 -54 -3 -18 -12 -133 -19 -257 -17 -298 -7 -358 65 -395
66 -34 104 13 148 180 70 267 90 307 166 330 27 9 80 18 117 22 66 6 67 5 99
-28 17 -19 52 -77 76 -129 124 -263 143 -298 178 -328 20 -18 45 -32 56 -32
28 0 77 27 89 49 13 25 13 113 0 169 -6 23 -12 57 -14 75 -5 35 -27 137 -56
262 -11 44 -23 106 -28 138 l-9 57 31 0 c39 0 103 36 130 73 27 37 27 127 0
164 -43 57 -143 82 -192 47 -20 -14 -23 -14 -27 0 -3 9 -8 24 -11 34 -3 9 -9
51 -14 93 -5 41 -18 115 -30 163 l-22 87 54 47 c29 26 83 76 120 111 38 35 68
59 68 53 0 -7 0 -13 0 -14 0 -2 13 -36 29 -76 l28 -74 -28 -59 c-24 -50 -29
-72 -29 -138 0 -85 5 -97 99 -260 79 -136 87 -190 46 -318 -33 -105 -32 -139
6 -191 29 -40 59 -55 59 -30 0 6 -11 26 -25 44 -31 41 -32 83 -4 176 17 54 20
87 17 146 -5 82 -23 128 -89 232 -54 84 -83 171 -75 225 6 51 45 134 46 100 0
-11 20 -83 45 -160 25 -77 47 -151 50 -163 2 -13 24 -88 49 -167 42 -132 49
-145 91 -184 37 -34 52 -41 84 -41 81 0 132 36 151 106 10 36 10 66 1 146 -7
56 -19 118 -26 137 -8 20 -17 49 -19 65 -3 16 -23 79 -45 140 -21 61 -44 128
-51 148 -6 20 -25 65 -42 100 -17 35 -34 74 -39 87 -13 32 -174 313 -219 381
-20 30 -66 101 -103 156 -95 144 -166 204 -224 192 -11 -3 -31 9 -51 29 -40
40 -62 52 -127 69 -66 18 -125 16 -205 -6z m211 -39 c62 -17 80 -26 110 -60
32 -35 41 -40 66 -35 25 5 37 0 68 -28 34 -29 145 -169 145 -182 0 -3 18 -31
40 -63 l40 -57 -48 -18 c-43 -16 -53 -17 -87 -5 -40 14 -45 20 -66 75 -16 44
-39 38 -56 -15 -16 -47 -12 -45 -175 -58 l-76 -7 5 40 c4 32 1 44 -16 61 -26
26 -47 26 -141 0 -41 -11 -82 -22 -90 -24 -8 -1 -59 -11 -112 -21 -89 -16 -98
-20 -98 -40 0 -28 -24 -37 -43 -16 -38 44 -59 105 -54 158 7 65 25 101 79 154
43 42 190 116 246 124 15 3 56 11 92 19 85 20 84 20 171 -2z m-77 -377 c20
-20 20 -27 -1 -52 -16 -18 -35 -22 -140 -29 -111 -7 -122 -7 -126 9 -5 18 12
24 173 68 82 23 76 23 94 4z m-295 -115 c1 -26 -28 -51 -30 -26 0 7 -3 25 -5
41 -3 18 0 32 8 37 15 10 26 -12 27 -52z m-69 36 c0 -8 -4 -15 -9 -15 -5 0
-11 7 -15 15 -3 9 0 15 9 15 8 0 15 -7 15 -15z m518 -53 c-56 -27 -77 -42 -78
-56 0 -22 35 -144 56 -194 l14 -33 113 113 c61 62 130 127 153 145 l41 32 32
-20 c35 -21 55 -62 47 -95 -3 -12 -83 -96 -176 -185 -121 -115 -169 -168 -164
-179 3 -8 8 -37 10 -65 7 -70 21 -142 55 -275 16 -63 31 -131 33 -150 2 -19
14 -73 25 -120 28 -119 62 -287 63 -313 0 -12 7 -47 14 -77 21 -87 42 -200 49
-260 5 -50 3 -58 -17 -76 -38 -35 -45 -35 -78 -7 -31 25 -99 156 -155 294 -25
61 -116 194 -141 203 -49 19 -225 -9 -274 -44 -38 -27 -88 -128 -96 -191 -13
-114 -61 -264 -93 -293 -28 -25 -57 -6 -73 47 -15 54 -12 256 7 412 12 98 38
345 61 580 3 37 16 105 64 340 10 50 21 107 24 127 7 42 44 145 75 206 27 53
27 58 -6 76 -26 13 -23 14 62 21 106 8 158 20 179 41 10 9 48 18 108 23 149
13 150 13 66 -27z m205 13 c13 -25 10 -29 -92 -130 l-106 -104 -22 67 c-13 37
-24 73 -25 80 -2 8 21 23 55 37 32 13 72 35 88 49 41 34 84 34 102 1z m57 10
c0 -12 -19 -12 -23 0 -4 9 -1 12 9 8 7 -3 14 -7 14 -8z m154 -1 c3 -9 6 -32 6
-52 l0 -37 -19 31 c-11 18 -29 38 -40 46 -25 18 -18 28 20 28 15 0 29 -7 33
-16z m-677 -10 c-3 -3 -12 -4 -19 -1 -8 3 -5 6 6 6 11 1 17 -2 13 -5z m-629
-43 c-15 -18 -26 -24 -30 -17 -15 22 -8 45 15 48 35 6 39 -1 15 -31z m552 35
c0 -8 -71 -12 -76 -4 -3 4 13 8 35 8 23 0 41 -2 41 -4z m-303 -41 c-1 -19 -4
-35 -6 -35 -7 0 -111 61 -111 66 0 2 27 4 60 4 l60 0 -3 -35z m64 22 c8 -7 18
-20 22 -30 5 -13 16 -17 44 -16 21 2 48 -4 60 -11 l21 -14 -24 -48 c-13 -26
-24 -50 -24 -53 0 -12 -9 -7 -68 39 -61 48 -62 50 -62 97 0 51 5 56 31 36z
m77 -5 c2 -7 -3 -12 -12 -12 -9 0 -16 7 -16 16 0 17 22 14 28 -4z m-277 -18
c57 -29 174 -112 226 -161 l53 -48 -22 -82 -21 -82 -49 42 c-27 23 -89 76
-138 117 -49 41 -105 94 -125 117 l-36 43 27 35 c30 39 42 42 85 19z m1306
-110 c24 -39 43 -74 43 -78 0 -3 11 -23 25 -44 13 -20 37 -73 53 -118 16 -44
37 -94 45 -110 15 -30 71 -209 109 -349 54 -199 23 -315 -83 -315 -57 0 -92
35 -128 131 -17 44 -31 89 -31 99 0 11 -20 81 -44 157 -24 76 -58 185 -76 243
l-33 106 22 41 c27 54 27 121 1 170 -26 49 -25 72 5 113 14 19 25 43 26 54 0
19 2 18 11 -4 7 -14 31 -57 55 -96z m-131 -81 c20 -44 15 -143 -7 -143 -5 0
-8 3 -8 8 1 4 1 9 -1 12 -1 3 -3 16 -6 29 -2 13 -13 43 -23 66 -19 42 -19 43
3 64 14 15 22 17 24 9 2 -7 10 -27 18 -45z m-954 -246 c-2 -12 -14 -78 -27
-147 -39 -200 -65 -383 -65 -459 0 -38 -4 -72 -9 -75 -17 -11 -67 42 -80 84
-17 58 -11 119 50 470 12 69 24 149 26 177 l5 53 52 -41 c37 -30 50 -47 48
-62z m864 -432 c34 -32 36 -38 31 -76 -7 -54 -40 -87 -93 -95 l-40 -5 -18 78
c-10 43 -20 89 -23 102 -4 14 -2 22 4 18 5 -3 15 -2 23 4 33 20 78 10 116 -26z"/>
<path d="M10823 5875 c-28 -31 -4 -69 39 -63 15 2 24 11 26 26 6 44 -38 69
-65 37z"/>
<path d="M10542 5868 c-26 -26 -7 -78 28 -78 8 0 21 9 28 21 11 17 11 25 -3
45 -17 26 -35 30 -53 12z"/>
<path d="M10474 5745 c-9 -22 34 -84 64 -92 20 -5 31 0 54 26 16 18 27 38 25
44 -11 34 -132 52 -143 22z m93 -21 c21 -6 21 -6 2 -25 -24 -24 -23 -24 -43 6
-15 23 -15 25 1 25 10 0 28 -3 40 -6z"/>
<path d="M10930 5721 c0 -8 43 -41 55 -41 13 0 3 38 -11 44 -23 9 -44 7 -44
-3z"/>
</g>
</svg>
